<?xml version="1.0" encoding="UTF-8" standalone="no"?>
<!DOCTYPE svg PUBLIC "-//W3C//DTD SVG 1.1//EN" "http://www.w3.org/Graphics/SVG/1.1/DTD/svg11.dtd">
<svg version="1.1" xmlns="http://www.w3.org/2000/svg" xmlns:xlink="http://www.w3.org/1999/xlink" preserveAspectRatio="xMidYMid meet" viewBox="2.4382201813617392 -0.9994999999999998 97.12311549459858 103.99900000000001" width="93.12" height="100"><defs><path d="M48.17 39.83C48.17 38.52 49.23 37.47 50.53 37.47C51.5 37.47 59.25 37.47 60.22 37.47C61.12 37.47 61.57 36.38 60.93 35.75C58.25 32.25 36.79 4.24 34.11 0.74C33.13 -0.24 31.54 -0.24 30.56 0.74C27.87 4.24 6.42 32.25 3.74 35.75C3.1 36.38 3.55 37.47 4.45 37.47C5.42 37.47 13.17 37.47 14.14 37.47C15.44 37.47 16.5 38.52 16.5 39.83C16.5 41.62 16.5 55.96 16.5 57.76C16.5 58.72 17.27 59.49 18.23 59.49C21.05 59.49 43.62 59.49 46.44 59.49C47.4 59.49 48.17 58.72 48.17 57.76C48.17 54.17 48.17 41.62 48.17 39.83Z" id="a1TdexIiyR"></path><linearGradient id="gradienteUqiXlrY7" gradientUnits="userSpaceOnUse" x1="32.33" y1="95.7" x2="32.33" y2="5.27"><stop style="stop-color: #ffde17;stop-opacity: 1" offset="0%"></stop><stop style="stop-color: #ffd210;stop-opacity: 1" offset="8.03%"></stop><stop style="stop-color: #fec90d;stop-opacity: 1" offset="17.740000000000002%"></stop><stop style="stop-color: #fdc70c;stop-opacity: 1" offset="28.09%"></stop><stop style="stop-color: #f3903f;stop-opacity: 1" offset="66.85%"></stop><stop style="stop-color: #ed683c;stop-opacity: 1" offset="88.75999999999999%"></stop><stop style="stop-color: #e93e3a;stop-opacity: 1" offset="100%"></stop></linearGradient><path d="M85.86 62.53C84.56 62.53 83.51 61.48 83.51 60.18C83.51 58.38 83.51 44.04 83.51 42.24C83.51 41.29 82.73 40.51 81.77 40.51C78.95 40.51 56.38 40.51 53.56 40.51C52.6 40.51 51.83 41.29 51.83 42.24C51.83 44.04 51.83 58.38 51.83 60.18C51.83 61.48 50.77 62.53 49.47 62.53C48.5 62.53 40.75 62.53 39.78 62.53C38.88 62.53 38.43 63.62 39.07 64.25C41.75 67.75 63.21 95.76 65.89 99.26C66.87 100.25 68.46 100.25 69.44 99.26C72.13 95.76 93.58 67.75 96.27 64.25C96.9 63.62 96.45 62.53 95.55 62.53C93.61 62.53 86.83 62.53 85.86 62.53Z" id="b3hT4OFRY"></path><linearGradient id="gradientcFcQ9ntC7" gradientUnits="userSpaceOnUse" x1="67.67" y1="94.17" x2="67.67" y2="3.74"><stop style="stop-color: #ffde17;stop-opacity: 1" offset="0%"></stop><stop style="stop-color: #ffd210;stop-opacity: 1" offset="8.03%"></stop><stop style="stop-color: #fec90d;stop-opacity: 1" offset="17.740000000000002%"></stop><stop style="stop-color: #fdc70c;stop-opacity: 1" offset="28.09%"></stop><stop style="stop-color: #f3903f;stop-opacity: 1" offset="66.85%"></stop><stop style="stop-color: #ed683c;stop-opacity: 1" offset="88.75999999999999%"></stop><stop style="stop-color: #e93e3a;stop-opacity: 1" offset="100%"></stop></linearGradient><path d="M64.13 76.02C64.13 76 64.14 75.98 64.14 75.97C65.01 73.16 66.4 68.7 67.42 65.46C67.79 65.46 70.73 65.46 71.09 65.46C71.78 65.46 72.34 65.02 72.34 64.49C72.34 63.95 71.78 63.51 71.09 63.51C70.79 63.51 68.35 63.51 68.04 63.51C68.37 62.49 68.61 61.76 68.71 61.51C68.72 61.49 68.8 61.26 68.81 61.24C69.2 60.2 70.11 57.79 71.51 57.79C72.81 57.79 73 59.35 73.01 59.43C73.07 59.96 73.67 60.37 74.35 60.32C75.04 60.28 75.56 59.81 75.5 59.27C75.39 58.08 74.4 55.83 71.51 55.83C68.23 55.83 67.01 59.11 66.41 60.69C66.4 60.71 66.32 60.93 66.31 60.95C66.19 61.26 65.88 62.22 65.47 63.51C65.03 63.51 61.53 63.51 61.1 63.51C60.41 63.51 59.85 63.95 59.85 64.49C59.85 65.02 60.41 65.46 61.1 65.46C61.47 65.46 64.47 65.46 64.85 65.46C63.57 69.52 61.91 74.88 61.73 75.47C61.66 75.63 61.15 76.72 60.1 76.72C58.5 76.72 57.8 74.96 57.8 74.95C57.61 74.43 56.92 74.13 56.25 74.28C55.59 74.43 55.21 74.97 55.4 75.49C55.84 76.67 57.32 78.67 60.1 78.67C62.49 78.67 63.75 77 64.13 76.02Z" id="bxyBzApwW"></path><path d="M79.98 75.09C79.98 74.79 79.83 74.52 79.5 74.21C79.33 74.06 78.46 73.28 76.9 71.89C78.41 70.51 79.25 69.74 79.42 69.59C79.65 69.36 79.83 69.12 79.83 68.8C79.83 68.23 79.23 67.8 78.45 67.8C77.93 67.8 77.52 68.06 77.17 68.39C77.04 68.53 76.39 69.19 75.22 70.39C74.07 69.19 73.43 68.53 73.3 68.39C72.91 68.02 72.51 67.8 71.93 67.8C71.19 67.8 70.57 68.21 70.57 68.86C70.57 69.16 70.73 69.44 71.06 69.74C71.22 69.88 72.02 70.61 73.48 71.92C71.88 73.39 71 74.2 70.82 74.37C70.57 74.59 70.42 74.83 70.42 75.15C70.42 75.73 71.02 76.15 71.79 76.15C72.31 76.15 72.72 75.89 73.07 75.56C73.21 75.42 73.91 74.7 75.16 73.41C76.41 74.7 77.11 75.42 77.25 75.56C77.64 75.94 78.05 76.15 78.63 76.15C79.36 76.15 79.98 75.74 79.98 75.09Z" id="a39KINIGFv"></path><path d="M46.27 29.11L46.38 29.13L46.48 29.16L46.59 29.2L46.68 29.25L46.78 29.3L46.87 29.37L46.95 29.43L47.02 29.51L47.09 29.59L47.16 29.67L47.21 29.76L47.26 29.85L47.3 29.95L47.34 30.05L47.36 30.16L47.37 30.27L47.38 30.38L47.37 30.49L47.36 30.6L47.34 30.7L47.3 30.81L47.26 30.9L47.21 31L47.16 31.09L47.09 31.17L47.02 31.25L46.95 31.32L46.86 31.39L46.78 31.45L46.68 31.51L46.59 31.55L46.48 31.59L46.38 31.62L46.27 31.65L46.15 31.66L46.04 31.67L31.44 31.67L25.71 51.03L25.68 51.11L25.65 51.19L25.61 51.26L25.56 51.34L25.51 51.4L25.46 51.47L25.4 51.53L25.34 51.59L25.28 51.64L25.21 51.69L25.14 51.73L25.06 51.78L24.99 51.81L24.91 51.84L24.83 51.87L24.74 51.89L24.66 51.91L24.57 51.92L24.48 51.93L24.43 51.93L24.35 51.92L24.26 51.92L24.18 51.9L24.1 51.88L24.02 51.86L23.94 51.83L23.86 51.8L23.79 51.77L23.72 51.73L23.65 51.68L23.58 51.63L23.52 51.58L23.46 51.53L23.41 51.47L23.36 51.4L23.31 51.34L23.26 51.27L23.23 51.19L23.19 51.12L20.85 45.49L18.63 45.49L18.51 45.49L18.4 45.48L18.29 45.45L18.18 45.42L18.08 45.38L17.98 45.34L17.89 45.28L17.8 45.22L17.72 45.15L17.64 45.08L17.57 45L17.51 44.92L17.45 44.83L17.41 44.73L17.36 44.63L17.33 44.53L17.31 44.43L17.29 44.32L17.29 44.21L17.29 44.1L17.31 43.99L17.33 43.88L17.36 43.78L17.41 43.68L17.45 43.59L17.51 43.5L17.57 43.41L17.64 43.34L17.72 43.26L17.8 43.19L17.89 43.13L17.98 43.08L18.08 43.03L18.18 42.99L18.29 42.96L18.4 42.94L18.51 42.93L18.63 42.92L21.76 42.92L21.84 42.92L21.93 42.93L22.01 42.94L22.09 42.96L22.17 42.99L22.25 43.01L22.33 43.04L22.4 43.08L22.47 43.12L22.54 43.17L22.61 43.21L22.67 43.27L22.73 43.32L22.78 43.38L22.83 43.45L22.88 43.51L22.93 43.58L22.96 43.65L23 43.73L24.3 46.85L29.19 29.99L29.22 29.9L29.26 29.82L29.3 29.75L29.34 29.67L29.39 29.6L29.45 29.54L29.51 29.48L29.57 29.42L29.64 29.36L29.71 29.32L29.78 29.27L29.86 29.23L29.94 29.19L30.02 29.16L30.11 29.14L30.19 29.12L30.28 29.1L30.37 29.1L30.46 29.09L46.04 29.09L46.15 29.1L46.27 29.11Z" id="chJGtW8oP"></path></defs><g><g><use xlink:href="#a1TdexIiyR" opacity="1" fill="url(#gradienteUqiXlrY7)"></use><g><use xlink:href="#a1TdexIiyR" opacity="1" fill-opacity="0" stroke="#000000" stroke-width="1" stroke-opacity="0"></use></g></g><g><use xlink:href="#b3hT4OFRY" opacity="1" fill="url(#gradientcFcQ9ntC7)"></use><g><use xlink:href="#b3hT4OFRY" opacity="1" fill-opacity="0" stroke="#000000" stroke-width="1" stroke-opacity="0"></use></g></g><g><use xlink:href="#bxyBzApwW" opacity="1" fill="#000000" fill-opacity="1"></use><g><use xlink:href="#bxyBzApwW" opacity="1" fill-opacity="0" stroke="#000000" stroke-width="1" stroke-opacity="0"></use></g></g><g><use xlink:href="#a39KINIGFv" opacity="1" fill="#000000" fill-opacity="1"></use><g><use xlink:href="#a39KINIGFv" opacity="1" fill-opacity="0" stroke="#000000" stroke-width="1" stroke-opacity="0"></use></g></g><g><use xlink:href="#chJGtW8oP" opacity="1" fill="#000000" fill-opacity="1"></use><g><use xlink:href="#chJGtW8oP" opacity="1" fill-opacity="0" stroke="#000000" stroke-width="1" stroke-opacity="0"></use></g></g></g></svg>